NotoKufiArabic-Thin.ufo
<glyph name="dateseparator-ar" format="2">
  <advance width="323"/>
  <unicode hex="060D"/>
  <note>
uni060D
</note>
  <outline>
    <contour>
      <point x="323" y="0" type="line"/>
      <point x="323" y="24" type="line"/>
      <point x="268" y="24" type="line" smooth="yes"/>
      <point x="164" y="24"/>
      <point x="103" y="-48"/>
      <point x="70" y="-206" type="curve"/>
      <point x="91" y="-207" type="line"/>
      <point x="136" y="-26"/>
      <point x="201" y="0"/>
      <point x="269" y="0" type="curve" smooth="yes"/>
    </contour>
  </outline>
</glyph>
<glyph name="sadabove-ar" format="2">
  <unicode hex="0610"/>
  <note>
uni0610
</note>
  <anchor x="-10" y="752" name="_top"/>
  <anchor x="-10" y="752" name="_top2"/>
  <anchor x="-13" y="868" name="top"/>
  <outline>
    <contour>
      <point x="-100" y="718" type="line"/>
      <point x="-85" y="729"/>
      <point x="-74" y="744"/>
      <point x="-65" y="764" type="curve"/>
      <point x="83" y="764" type="line"/>
      <point x="83" y="799" type="line" smooth="yes"/>
      <point x="83" y="834"/>
      <point x="57" y="868"/>
      <point x="28" y="868" type="curve" smooth="yes"/>
      <point x="-15.999" y="868"/>
      <point x="-36" y="855"/>
      <point x="-65" y="817" type="curve"/>
      <point x="-65" y="871" type="line"/>
      <point x="-85" y="865" type="line"/>
      <point x="-85" y="771" type="line" smooth="yes"/>
      <point x="-85" y="760"/>
      <point x="-92" y="749"/>
      <point x="-109" y="725" type="curve"/>
    </contour>
    <contour>
      <point x="-72" y="787" type="line"/>
      <point x="-72" y="788" type="line"/>
      <point x="-43" y="828"/>
      <point x="-22" y="842"/>
      <point x="19" y="842" type="curve" smooth="yes"/>
      <point x="41" y="842"/>
      <point x="55" y="824"/>
      <point x="55" y="796" type="curve" smooth="yes"/>
      <point x="55" y="787" type="line"/>
    </contour>
  </outline>
</glyph>
<glyph name="question-ar" format="2">
  <advance width="440"/>
  <unicode hex="061F"/>
  <note>
uni061F
</note>
  <outline>
    <contour>
      <point x="250" y="157" type="curve" smooth="yes"/>
      <point x="249" y="137" type="line"/>
      <point x="273" y="137" type="line"/>
      <point x="274" y="157" type="line" smooth="yes"/>
      <point x="279" y="251"/>
      <point x="263" y="287"/>
      <point x="196" y="351" type="curve" smooth="yes"/>
      <point x="134" y="410"/>
      <point x="89" y="450"/>
      <point x="89" y="542" type="curve" smooth="yes"/>
      <point x="89" y="640"/>
      <point x="148" y="700"/>
      <point x="247" y="700" type="curve" smooth="yes"/>
      <point x="320" y="700"/>
      <point x="357" y="678"/>
      <point x="383" y="663" type="curve"/>
      <point x="395" y="684" type="line"/>
      <point x="377" y="695"/>
      <point x="331" y="724"/>
      <point x="248" y="724" type="curve" smooth="yes"/>
      <point x="129" y="724"/>
      <point x="65" y="652"/>
      <point x="65" y="537" type="curve" smooth="yes"/>
      <point x="65" y="438"/>
      <point x="116" y="395"/>
      <point x="179" y="334" type="curve" smooth="yes"/>
      <point x="249" y="268"/>
      <point x="253" y="222"/>
    </contour>
    <contour>
      <point x="259" y="-10" type="curve" smooth="yes"/>
      <point x="275" y="-10"/>
      <point x="285" y="-1"/>
      <point x="285" y="18" type="curve" smooth="yes"/>
      <point x="285" y="37"/>
      <point x="276" y="46"/>
      <point x="259" y="46" type="curve" smooth="yes"/>
      <point x="240" y="46"/>
      <point x="232" y="35"/>
      <point x="232" y="18" type="curve" smooth="yes"/>
      <point x="232" y="2"/>
      <point x="241" y="-10"/>
    </contour>
  </outline>
</glyph>
<glyph name="alef-ar" format="2">
  <advance width="220"/>
  <unicode hex="0627"/>
  <note>
uni0627
</note>
  <anchor x="112" y="-75" name="bottom"/>
  <anchor x="104" y="830" name="top"/>
  <outline>
    <contour>
      <point x="98" y="760" type="line"/>
      <point x="98" y="0" type="line"/>
      <point x="122" y="0" type="line"/>
      <point x="122" y="760" type="line"/>
    </contour>
  </outline>
</glyph>
<glyph name="fathatan-ar" format="2">
  <unicode hex="064B"/>
  <note>
uni064B
</note>
  <anchor x="0" y="781" name="_top"/>
  <anchor x="0" y="771" name="_top2"/>
  <anchor x="0" y="1021" name="top"/>
  <outline>
    <contour>
      <point x="-117" y="799" type="line"/>
      <point x="-117" y="776" type="line"/>
      <point x="117" y="864" type="line"/>
      <point x="117" y="886" type="line"/>
    </contour>
    <contour>
      <point x="-117" y="912" type="line"/>
      <point x="-117" y="889" type="line"/>
      <point x="117" y="977" type="line"/>
      <point x="117" y="999" type="line"/>
    </contour>
  </outline>
</glyph>
<glyph name="dammatan-ar" format="2">
  <unicode hex="064C"/>
  <note>
uni064C
</note>
  <anchor x="5" y="761" name="_top"/>
  <anchor x="0" y="761" name="_top2"/>
  <anchor x="-14" y="1000" name="top"/>
  <outline>
    <contour>
      <point x="-8" y="780" type="curve" smooth="yes"/>
      <point x="35" y="780"/>
      <point x="103" y="810"/>
      <point x="132" y="852" type="curve" smooth="yes"/>
      <point x="146" y="873"/>
      <point x="153" y="897"/>
      <point x="153" y="920" type="curve" smooth="yes"/>
      <point x="153" y="969"/>
      <point x="119" y="1000"/>
      <point x="70" y="1000" type="curve" smooth="yes"/>
      <point x="18.001" y="1000"/>
      <point x="-17" y="969"/>
      <point x="-17" y="920" type="curve" smooth="yes"/>
      <point x="-17" y="874"/>
      <point x="0" y="838"/>
      <point x="21" y="807" type="curve"/>
      <point x="16" y="805"/>
      <point x="4" y="802"/>
      <point x="-8" y="802" type="curve" smooth="yes"/>
      <point x="-52" y="802"/>
      <point x="-86" y="824"/>
      <point x="-117" y="884" type="curve"/>
      <point x="-179" y="825" type="line"/>
      <point x="-165" y="809" type="line"/>
      <point x="-122" y="849" type="line"/>
      <point x="-91" y="801"/>
      <point x="-58" y="780"/>
    </contour>
    <contour>
      <point x="39" y="812" type="curve"/>
      <point x="17" y="849"/>
      <point x="5" y="885"/>
      <point x="5" y="915" type="curve" smooth="yes"/>
      <point x="5" y="958"/>
      <point x="33" y="978"/>
      <point x="68" y="978" type="curve" smooth="yes"/>
      <point x="105" y="978"/>
      <point x="131" y="952"/>
      <point x="131" y="915" type="curve" smooth="yes"/>
      <point x="131" y="872"/>
      <point x="95" y="833"/>
    </contour>
  </outline>
</glyph>
<glyph name="kasratan-ar" format="2">
  <unicode hex="064D"/>
  <note>
uni064D
</note>
  <anchor x="0" y="-122" name="_bottom"/>
  <anchor x="0" y="-122" name="_bottom2"/>
  <anchor x="0" y="-387" name="bottom"/>
  <outline>
    <contour>
      <point x="-117" y="-343" type="line"/>
      <point x="-117" y="-366" type="line"/>
      <point x="117" y="-278" type="line"/>
      <point x="117" y="-256" type="line"/>
    </contour>
    <contour>
      <point x="-117" y="-240" type="line"/>
      <point x="-117" y="-263" type="line"/>
      <point x="117" y="-175" type="line"/>
      <point x="117" y="-153" type="line"/>
    </contour>
  </outline>
</glyph>
<glyph name="fatha-ar" format="2">
  <unicode hex="064E"/>
  <note>
uni064E
</note>
  <anchor x="0" y="781" name="_top"/>
  <anchor x="6" y="767" name="_top2"/>
  <anchor x="0" y="908" name="top"/>
  <outline>
    <contour>
      <point x="-117" y="810" type="line"/>
      <point x="-117" y="787" type="line"/>
      <point x="117" y="875" type="line"/>
      <point x="117" y="897" type="line"/>
    </contour>
  </outline>
</glyph>
<glyph name="damma-ar" format="2">
  <unicode hex="064F"/>
  <note>
uni064F
</note>
  <anchor x="0" y="775" name="_top"/>
  <anchor x="0" y="1011" name="top"/>
  <outline>
    <contour>
      <point x="-32" y="780" type="curve" smooth="yes"/>
      <point x="17" y="780"/>
      <point x="76" y="805"/>
      <point x="116" y="855" type="curve" smooth="yes"/>
      <point x="134" y="878"/>
      <point x="141" y="900"/>
      <point x="141" y="924" type="curve" smooth="yes"/>
      <point x="141" y="964"/>
      <point x="112" y="1000"/>
      <point x="58" y="1000" type="curve" smooth="yes"/>
      <point x="6" y="1000"/>
      <point x="-29" y="969"/>
      <point x="-29" y="920" type="curve" smooth="yes"/>
      <point x="-29" y="881"/>
      <point x="-11" y="844"/>
      <point x="27" y="815" type="curve"/>
      <point x="9" y="806"/>
      <point x="-13" y="802"/>
      <point x="-33" y="802" type="curve" smooth="yes"/>
      <point x="-63" y="802"/>
      <point x="-89" y="811"/>
      <point x="-116" y="832" type="curve"/>
      <point x="-131" y="815" type="line"/>
      <point x="-109" y="795"/>
      <point x="-76" y="780"/>
    </contour>
    <contour>
      <point x="45" y="824" type="curve"/>
      <point x="11" y="854"/>
      <point x="-6" y="884"/>
      <point x="-6" y="915" type="curve" smooth="yes"/>
      <point x="-6" y="958"/>
      <point x="20" y="977"/>
      <point x="56" y="977" type="curve" smooth="yes"/>
      <point x="97" y="977"/>
      <point x="118" y="954"/>
      <point x="118" y="920" type="curve" smooth="yes"/>
      <point x="118" y="882"/>
      <point x="86" y="846"/>
    </contour>
  </outline>
</glyph>
<glyph name="kasra-ar" format="2">
  <unicode hex="0650"/>
  <note>
uni0650
</note>
  <anchor x="0" y="-122" name="_bottom"/>
  <anchor x="0" y="-122" name="_bottom2"/>
  <anchor x="0" y="-283" name="bottom"/>
  <outline>
    <contour>
      <point x="-117" y="-232" type="line"/>
      <point x="-117" y="-255" type="line"/>
      <point x="117" y="-167" type="line"/>
      <point x="117" y="-145" type="line"/>
    </contour>
  </outline>
</glyph>
<glyph name="shadda-ar" format="2">
  <unicode hex="0651"/>
  <note>
uni0651
</note>
  <anchor x="0" y="769" name="_top"/>
  <anchor x="0" y="736" name="_top2"/>
  <anchor x="2" y="1032" name="top"/>
  <outline>
    <contour>
      <point x="-79" y="806" type="curve" smooth="yes"/>
      <point x="-43" y="806"/>
      <point x="-12" y="820"/>
      <point x="-1" y="862" type="curve"/>
      <point x="13" y="832"/>
      <point x="38" y="826"/>
      <point x="69" y="826" type="curve" smooth="yes"/>
      <point x="124" y="826"/>
      <point x="150" y="858"/>
      <point x="150" y="923" type="curve" smooth="yes"/>
      <point x="150" y="1006" type="line"/>
      <point x="128" y="1006" type="line"/>
      <point x="128" y="925" type="line" smooth="yes"/>
      <point x="128" y="876"/>
      <point x="117" y="848"/>
      <point x="66" y="848" type="curve" smooth="yes"/>
      <point x="32" y="848"/>
      <point x="8" y="861"/>
      <point x="8" y="916" type="curve" smooth="yes"/>
      <point x="8" y="991" type="line"/>
      <point x="-14" y="991" type="line"/>
      <point x="-14" y="896" type="line" smooth="yes"/>
      <point x="-14" y="858"/>
      <point x="-37" y="828"/>
      <point x="-75" y="828" type="curve" smooth="yes"/>
      <point x="-115" y="828"/>
      <point x="-137" y="843"/>
      <point x="-137" y="905" type="curve" smooth="yes"/>
      <point x="-137" y="966" type="line"/>
      <point x="-159" y="966" type="line"/>
      <point x="-159" y="903" type="line" smooth="yes"/>
      <point x="-159" y="838"/>
      <point x="-132" y="806"/>
    </contour>
  </outline>
</glyph>
<glyph name="sukun-ar" format="2">
  <unicode hex="0652"/>
  <note>
uni0652
</note>
  <anchor x="0" y="801" name="_top"/>
  <anchor x="0" y="801" name="_top2"/>
  <anchor x="1" y="1046" name="top"/>
  <outline>
    <contour>
      <point x="-1" y="850" type="curve" smooth="yes"/>
      <point x="45" y="850"/>
      <point x="79" y="881"/>
      <point x="79" y="930" type="curve" smooth="yes"/>
      <point x="79" y="977"/>
      <point x="47" y="1008"/>
      <point x="-1" y="1008" type="curve" smooth="yes"/>
      <point x="-48" y="1008"/>
      <point x="-81" y="979"/>
      <point x="-81" y="929" type="curve" smooth="yes"/>
      <point x="-81" y="879"/>
      <point x="-50" y="850"/>
    </contour>
    <contour>
      <point x="-1" y="871" type="curve" smooth="yes"/>
      <point x="-39" y="871"/>
      <point x="-59" y="890"/>
      <point x="-59" y="929" type="curve" smooth="yes"/>
      <point x="-59" y="966"/>
      <point x="-33" y="987"/>
      <point x="-1" y="987" type="curve" smooth="yes"/>
      <point x="31" y="987"/>
      <point x="57" y="966"/>
      <point x="57" y="929" type="curve" smooth="yes"/>
      <point x="57" y="894"/>
      <point x="31" y="871"/>
    </contour>
  </outline>
</glyph>
<glyph name="madda-ar" format="2">
  <unicode hex="0653"/>
  <note>
uni0653
</note>
  <anchor x="0" y="732" name="_top"/>
  <anchor x="0" y="732" name="_top2"/>
  <anchor x="2" y="866" name="top"/>
  <outline>
    <contour>
      <point x="-117" y="769" type="curve"/>
      <point x="-99" y="769" type="line"/>
      <point x="-92" y="794"/>
      <point x="-84" y="810"/>
      <point x="-60" y="810" type="curve" smooth="yes"/>
      <point x="-28" y="810"/>
      <point x="23" y="769"/>
      <point x="61" y="769" type="curve" smooth="yes"/>
      <point x="95" y="769"/>
      <point x="109" y="797"/>
      <point x="114" y="830" type="curve"/>
      <point x="95" y="830" type="line"/>
      <point x="88" y="805"/>
      <point x="80" y="791"/>
      <point x="60" y="791" type="curve" smooth="yes"/>
      <point x="33" y="791"/>
      <point x="-19" y="832"/>
      <point x="-60" y="832" type="curve" smooth="yes"/>
      <point x="-99" y="832"/>
      <point x="-111" y="807"/>
    </contour>
  </outline>
</glyph>
<glyph name="fathaHorizont-ar" format="2">
  <unicode hex="0659"/>
  <note>
uni0659
</note>
  <anchor x="-10" y="605" name="_top"/>
  <anchor x="-10" y="605" name="_top2"/>
  <anchor x="-12" y="689" name="top"/>
  <outline>
    <contour>
      <point x="58" y="662" type="line"/>
      <point x="-67" y="662" type="line"/>
      <point x="-82" y="641" type="line"/>
      <point x="38" y="641" type="line"/>
    </contour>
  </outline>
</glyph>
<glyph name="dammareversed-ar" format="2">
  <unicode hex="065D"/>
  <note>
uni065D
</note>
  <anchor x="0" y="566" name="_top"/>
  <anchor x="0" y="566" name="_top2"/>
  <anchor x="-3" y="843" name="top"/>
  <outline>
    <contour>
      <point x="39" y="593" type="curve" smooth="yes"/>
      <point x="79.999" y="593"/>
      <point x="112" y="603"/>
      <point x="141" y="623" type="curve"/>
      <point x="125" y="641" type="line"/>
      <point x="100" y="624"/>
      <point x="70" y="615"/>
      <point x="42" y="615" type="curve" smooth="yes"/>
      <point x="22" y="615"/>
      <point x="-1" y="617"/>
      <point x="-29" y="629" type="curve"/>
      <point x="3" y="650"/>
      <point x="23" y="689"/>
      <point x="23" y="729" type="curve" smooth="yes"/>
      <point x="23" y="782"/>
      <point x="-12.001" y="813"/>
      <point x="-62" y="813" type="curve" smooth="yes"/>
      <point x="-116" y="813"/>
      <point x="-147" y="781.001"/>
      <point x="-147" y="737" type="curve" smooth="yes"/>
      <point x="-147" y="692.999"/>
      <point x="-109" y="641"/>
      <point x="-50" y="614" type="curve" smooth="yes"/>
      <point x="-21" y="600"/>
      <point x="11" y="593"/>
    </contour>
    <contour>
      <point x="-48" y="637" type="curve"/>
      <point x="-100" y="665"/>
      <point x="-123" y="708"/>
      <point x="-123" y="737" type="curve" smooth="yes"/>
      <point x="-123" y="768"/>
      <point x="-100" y="790"/>
      <point x="-62" y="790" type="curve" smooth="yes"/>
      <point x="-29" y="790"/>
      <point x="-1" y="772"/>
      <point x="-1" y="728" type="curve" smooth="yes"/>
      <point x="-1" y="697"/>
      <point x="-15" y="668"/>
    </contour>
  </outline>
</glyph>
<glyph name="wavyhamza_below" format="2">
  <unicode hex="065F"/>
  <note>
wavyhamza_below
</note>
  <outline>
    <contour>
      <point x="90" y="-221" type="curve"/>
      <point x="90" y="-199" type="line"/>
      <point x="63" y="-204"/>
      <point x="3" y="-214"/>
      <point x="-11" y="-215" type="curve"/>
      <point x="-34" y="-206"/>
      <point x="-51" y="-183"/>
      <point x="-51" y="-155" type="curve" smooth="yes"/>
      <point x="-51" y="-120"/>
      <point x="-25" y="-94"/>
      <point x="16" y="-94" type="curve" smooth="yes"/>
      <point x="35" y="-94"/>
      <point x="51" y="-100"/>
      <point x="61" y="-105" type="curve"/>
      <point x="71" y="-84" type="line"/>
      <point x="61" y="-78"/>
      <point x="42" y="-73"/>
      <point x="19" y="-73" type="curve" smooth="yes"/>
      <point x="-39" y="-73"/>
      <point x="-73" y="-105"/>
      <point x="-73" y="-155" type="curve" smooth="yes"/>
      <point x="-73" y="-187"/>
      <point x="-59" y="-208"/>
      <point x="-36" y="-220" type="curve"/>
      <point x="-61" y="-222"/>
      <point x="-78" y="-216"/>
      <point x="-87" y="-213" type="curve" smooth="yes"/>
      <point x="-93" y="-211"/>
      <point x="-103" y="-206"/>
      <point x="-110" y="-205" type="curve" smooth="yes"/>
      <point x="-118" y="-204"/>
      <point x="-127" y="-204"/>
      <point x="-136" y="-209" type="curve" smooth="yes"/>
      <point x="-144" y="-214"/>
      <point x="-154" y="-223"/>
      <point x="-171" y="-244" type="curve"/>
      <point x="-157" y="-252" type="line"/>
      <point x="-143" y="-236"/>
      <point x="-130" y="-225"/>
      <point x="-116" y="-225" type="curve" smooth="yes"/>
      <point x="-108" y="-225"/>
      <point x="-96" y="-231"/>
      <point x="-84" y="-235" type="curve" smooth="yes"/>
      <point x="-62" y="-242"/>
      <point x="-49" y="-243"/>
      <point x="-28" y="-241" type="curve" smooth="yes"/>
      <point x="-20" y="-240"/>
      <point x="77" y="-223"/>
    </contour>
  </outline>
</glyph>
<glyph name="zero-ar" format="2">
  <advance width="259"/>
  <unicode hex="0660"/>
  <note>
uni0660
</note>
  <outline>
    <contour>
      <point x="100" y="346" type="line"/>
      <point x="100" y="199" type="line"/>
      <point x="159" y="199" type="line"/>
      <point x="159" y="346" type="line"/>
    </contour>
  </outline>
</glyph>
<glyph name="one-ar" format="2">
  <advance width="224"/>
  <unicode hex="0661"/>
  <note>
uni0661
</note>
  <outline>
    <contour>
      <point x="100" y="674" type="line"/>
      <point x="100" y="0" type="line"/>
      <point x="124" y="0" type="line"/>
      <point x="124" y="674" type="line"/>
    </contour>
  </outline>
</glyph>
<glyph name="six-ar" format="2">
  <advance width="477"/>
  <unicode hex="0666"/>
  <note>
uni0666
</note>
  <outline>
    <contour>
      <point x="353" y="652" type="line"/>
      <point x="353" y="0" type="line"/>
      <point x="377" y="0" type="line"/>
      <point x="377" y="674" type="line"/>
      <point x="0" y="674" type="line"/>
      <point x="0" y="652" type="line"/>
    </contour>
  </outline>
</glyph>
<glyph name="thousandseparator-ar" format="2">
  <advance width="225"/>
  <unicode hex="066C"/>
  <note>
uni066C
</note>
  <outline>
    <contour>
      <point x="65" y="141" type="curve"/>
      <point x="82" y="141" type="line"/>
      <point x="119" y="235"/>
      <point x="143" y="313"/>
      <point x="159" y="375" type="curve"/>
      <point x="152" y="386" type="line"/>
      <point x="131" y="386" type="line"/>
      <point x="122" y="346"/>
      <point x="84" y="191"/>
    </contour>
  </outline>
</glyph>
<glyph name="sadLamAlefMaksuraabove-ar" format="2">
  <unicode hex="06D6"/>
  <note>
uni06D6
</note>
  <anchor x="-39" y="447" name="_top"/>
  <anchor x="-39" y="447" name="_top2"/>
  <anchor x="-19" y="883" name="top"/>
  <outline>
    <contour>
      <point x="-141" y="582" type="curve" smooth="yes"/>
      <point x="164" y="582" type="line"/>
      <point x="164" y="652" type="line" smooth="yes"/>
      <point x="164" y="721"/>
      <point x="135" y="750"/>
      <point x="79" y="750" type="curve" smooth="yes"/>
      <point x="41" y="750"/>
      <point x="7" y="731"/>
      <point x="-23" y="679" type="curve"/>
      <point x="-23" y="737" type="line"/>
      <point x="-41" y="737" type="line"/>
      <point x="-41" y="600" type="line"/>
      <point x="-102" y="600" type="line"/>
      <point x="-102" y="853" type="line"/>
      <point x="-120" y="853" type="line"/>
      <point x="-120" y="600" type="line"/>
      <point x="-141" y="600" type="line" smooth="yes"/>
      <point x="-180" y="600"/>
      <point x="-203" y="585"/>
      <point x="-203" y="543" type="curve" smooth="yes"/>
      <point x="-203" y="496"/>
      <point x="-180" y="484"/>
      <point x="-151" y="484" type="curve" smooth="yes"/>
      <point x="-31" y="484" type="line"/>
      <point x="-31" y="502" type="line"/>
      <point x="-151" y="502" type="line" smooth="yes"/>
      <point x="-178" y="502"/>
      <point x="-185" y="516"/>
      <point x="-185" y="542" type="curve" smooth="yes"/>
      <point x="-185" y="572"/>
      <point x="-173" y="582"/>
    </contour>
    <contour>
      <point x="146" y="600" type="line"/>
      <point x="-23" y="600" type="line"/>
      <point x="-23" y="655" type="line"/>
      <point x="19" y="721"/>
      <point x="51" y="732"/>
      <point x="80" y="732" type="curve" smooth="yes"/>
      <point x="126" y="732"/>
      <point x="146" y="710"/>
      <point x="146" y="649" type="curve" smooth="yes"/>
    </contour>
  </outline>
</glyph>
<glyph name="qafLamAlefMaksuraabove-ar" format="2">
  <unicode hex="06D7"/>
  <note>
uni06D7
</note>
  <anchor x="20" y="447" name="_top"/>
  <anchor x="20" y="437" name="_top2"/>
  <anchor x="17" y="882" name="top"/>
  <outline>
    <contour>
      <point x="68" y="600" type="curve"/>
      <point x="-42" y="600" type="line"/>
      <point x="-42" y="853" type="line"/>
      <point x="-60" y="853" type="line"/>
      <point x="-60" y="600" type="line"/>
      <point x="-81" y="600" type="line" smooth="yes"/>
      <point x="-122" y="600"/>
      <point x="-141" y="589"/>
      <point x="-141" y="543" type="curve" smooth="yes"/>
      <point x="-141" y="496"/>
      <point x="-119" y="484"/>
      <point x="-84" y="484" type="curve" smooth="yes"/>
      <point x="29" y="484" type="line"/>
      <point x="29" y="502" type="line"/>
      <point x="-84" y="502" type="line" smooth="yes"/>
      <point x="-117" y="502"/>
      <point x="-123" y="516"/>
      <point x="-123" y="542" type="curve" smooth="yes"/>
      <point x="-123" y="571"/>
      <point x="-112" y="582"/>
      <point x="-81" y="582" type="curve" smooth="yes"/>
      <point x="175" y="582" type="line"/>
      <point x="175" y="772" type="line"/>
      <point x="142" y="772" type="line" smooth="yes"/>
      <point x="77" y="772"/>
      <point x="39" y="736"/>
      <point x="39" y="666" type="curve" smooth="yes"/>
      <point x="39" y="638"/>
      <point x="48" y="610"/>
    </contour>
    <contour>
      <point x="157" y="600" type="line"/>
      <point x="106" y="600" type="line" smooth="yes"/>
      <point x="74" y="600"/>
      <point x="57" y="632"/>
      <point x="57" y="668" type="curve" smooth="yes"/>
      <point x="57" y="726"/>
      <point x="88" y="754"/>
      <point x="143" y="754" type="curve" smooth="yes"/>
      <point x="157" y="754" type="line"/>
    </contour>
    <contour>
      <point x="91" y="815" type="curve" smooth="yes"/>
      <point x="101" y="815"/>
      <point x="107" y="820"/>
      <point x="107" y="832" type="curve" smooth="yes"/>
      <point x="107" y="845"/>
      <point x="101" y="850"/>
      <point x="91" y="850" type="curve" smooth="yes"/>
      <point x="78" y="850"/>
      <point x="74" y="843"/>
      <point x="74" y="832" type="curve" smooth="yes"/>
      <point x="74" y="822"/>
      <point x="78" y="815"/>
    </contour>
    <contour>
      <point x="155" y="815" type="curve" smooth="yes"/>
      <point x="167" y="815"/>
      <point x="171" y="822"/>
      <point x="171" y="832" type="curve" smooth="yes"/>
      <point x="171" y="843"/>
      <point x="165" y="850"/>
      <point x="155" y="850" type="curve" smooth="yes"/>
      <point x="144" y="850"/>
      <point x="138" y="844"/>
      <point x="138" y="832" type="curve" smooth="yes"/>
      <point x="138" y="822"/>
      <point x="142" y="815"/>
    </contour>
  </outline>
</glyph>
<glyph name="meemabove-ar" format="2">
  <unicode hex="06D8"/>
  <note>
uni06D8
</note>
  <anchor x="0" y="459" name="_top"/>
  <anchor x="0" y="459" name="_top2"/>
  <anchor x="0" y="697" name="top"/>
  <outline>
    <contour>
      <point x="-90" y="483" type="curve" smooth="yes"/>
      <point x="8" y="483" type="line" smooth="yes"/>
      <point x="70" y="483"/>
      <point x="92" y="521"/>
      <point x="92" y="584" type="curve" smooth="yes"/>
      <point x="92" y="636"/>
      <point x="68" y="667"/>
      <point x="20" y="667" type="curve" smooth="yes"/>
      <point x="-11" y="667"/>
      <point x="-35" y="657"/>
      <point x="-48" y="637" type="curve"/>
      <point x="-55" y="623"/>
      <point x="-56" y="610"/>
      <point x="-56" y="593" type="curve" smooth="yes"/>
      <point x="-56" y="565"/>
      <point x="-49" y="530"/>
      <point x="-35" y="501" type="curve"/>
      <point x="-90" y="501" type="line" smooth="yes"/>
      <point x="-91" y="501"/>
      <point x="-92" y="500"/>
      <point x="-92" y="499" type="curve" smooth="yes"/>
      <point x="-92" y="487" type="line" smooth="yes"/>
      <point x="-92" y="485"/>
      <point x="-91" y="483"/>
    </contour>
    <contour>
      <point x="-38" y="602" type="curve" smooth="yes"/>
      <point x="-38" y="616"/>
      <point x="-36" y="625"/>
      <point x="-33" y="630" type="curve"/>
      <point x="-17" y="642"/>
      <point x="2" y="649"/>
      <point x="21" y="649" type="curve" smooth="yes"/>
      <point x="60" y="649"/>
      <point x="74" y="621"/>
      <point x="74" y="584" type="curve" smooth="yes"/>
      <point x="74" y="531"/>
      <point x="59" y="501"/>
      <point x="12" y="501" type="curve" smooth="yes"/>
      <point x="-19" y="501" type="line"/>
      <point x="-31" y="534"/>
      <point x="-38" y="565"/>
    </contour>
  </outline>
</glyph>
<glyph name="lamAlefabove-ar" format="2">
  <unicode hex="06D9"/>
  <note>
uni06D9
</note>
  <anchor x="15" y="449" name="_top"/>
  <anchor x="15" y="449" name="_top2"/>
  <anchor x="-3" y="809" name="top"/>
  <outline>
    <contour>
      <point x="-103" y="503" type="line"/>
      <point x="-103" y="485" type="line"/>
      <point x="38" y="485" type="line" smooth="yes"/>
      <point x="72" y="485"/>
      <point x="96" y="506"/>
      <point x="96" y="547" type="curve" smooth="yes"/>
      <point x="96" y="789" type="line"/>
      <point x="78" y="789" type="line"/>
      <point x="78" y="547" type="line" smooth="yes"/>
      <point x="78" y="515"/>
      <point x="61" y="503"/>
      <point x="38" y="503" type="curve" smooth="yes"/>
      <point x="19" y="503" type="line"/>
      <point x="-30" y="735" type="line"/>
      <point x="-49" y="735" type="line"/>
      <point x="2" y="503" type="line"/>
    </contour>
  </outline>
</glyph>
<glyph name="jeemabove-ar" format="2">
  <unicode hex="06DA"/>
  <note>
uni06DA
</note>
  <anchor x="19" y="444" name="_top"/>
  <anchor x="20" y="436" name="_top2"/>
  <anchor x="13" y="833" name="top"/>
  <outline>
    <contour>
      <point x="103" y="623" type="curve"/>
      <point x="113" y="636" type="line"/>
      <point x="96" y="645"/>
      <point x="81" y="682"/>
      <point x="78" y="701" type="curve" smooth="yes"/>
      <point x="69" y="773"/>
      <point x="38" y="803"/>
      <point x="-10" y="803" type="curve" smooth="yes"/>
      <point x="-29.001" y="803"/>
      <point x="-66" y="794"/>
      <point x="-87" y="780" type="curve"/>
      <point x="-81" y="768" type="line"/>
      <point x="-54" y="779"/>
      <point x="-27" y="785"/>
      <point x="-10" y="785" type="curve" smooth="yes"/>
      <point x="35" y="785"/>
      <point x="48" y="761"/>
      <point x="62" y="696" type="curve" smooth="yes"/>
      <point x="67" y="677" type="line"/>
      <point x="-52" y="640"/>
      <point x="-86" y="602"/>
      <point x="-86" y="555" type="curve" smooth="yes"/>
      <point x="-86" y="504"/>
      <point x="-50" y="482"/>
      <point x="-6" y="482" type="curve" smooth="yes"/>
      <point x="24" y="482"/>
      <point x="42" y="485"/>
      <point x="67" y="488" type="curve"/>
      <point x="66" y="506" type="line"/>
      <point x="43" y="503"/>
      <point x="28" y="500"/>
      <point x="0" y="500" type="curve" smooth="yes"/>
      <point x="-42" y="500"/>
      <point x="-68" y="514"/>
      <point x="-68" y="557" type="curve" smooth="yes"/>
      <point x="-68" y="610"/>
      <point x="7" y="640"/>
      <point x="72" y="660" type="curve"/>
      <point x="73" y="653"/>
      <point x="84" y="640"/>
    </contour>
    <contour>
      <point x="19" y="546" type="curve" smooth="yes"/>
      <point x="27" y="546"/>
      <point x="36" y="549"/>
      <point x="36" y="563" type="curve" smooth="yes"/>
      <point x="36" y="577"/>
      <point x="27" y="580"/>
      <point x="19" y="580" type="curve" smooth="yes"/>
      <point x="8" y="580"/>
      <point x="3" y="572"/>
      <point x="3" y="563" type="curve" smooth="yes"/>
      <point x="3" y="554"/>
      <point x="8" y="546"/>
    </contour>
  </outline>
</glyph>
<glyph name="seenabove-ar" format="2">
  <unicode hex="06DC"/>
  <note>
uni06DC
</note>
  <anchor x="129" y="461" name="_top"/>
  <anchor x="130" y="466" name="_top2"/>
  <outline>
    <contour>
      <point x="265" y="587" type="curve" smooth="yes"/>
      <point x="297" y="587" type="line"/>
      <point x="297" y="777" type="line"/>
      <point x="279" y="777" type="line"/>
      <point x="279" y="605" type="line"/>
      <point x="266" y="605" type="line" smooth="yes"/>
      <point x="237" y="605"/>
      <point x="221" y="618"/>
      <point x="211" y="630" type="curve"/>
      <point x="212" y="636"/>
      <point x="212" y="642"/>
      <point x="212" y="647" type="curve"/>
      <point x="212" y="746" type="line"/>
      <point x="194" y="746" type="line"/>
      <point x="194" y="648" type="line" smooth="yes"/>
      <point x="194" y="625"/>
      <point x="177" y="605"/>
      <point x="154" y="605" type="curve" smooth="yes"/>
      <point x="111" y="605" type="line"/>
      <point x="111" y="746" type="line"/>
      <point x="93" y="746" type="line"/>
      <point x="93" y="585" type="line" smooth="yes"/>
      <point x="93" y="529"/>
      <point x="73" y="509"/>
      <point x="31" y="509" type="curve" smooth="yes"/>
      <point x="5" y="509" type="line" smooth="yes"/>
      <point x="-46" y="509"/>
      <point x="-53" y="545"/>
      <point x="-53" y="592" type="curve" smooth="yes"/>
      <point x="-53" y="626"/>
      <point x="-47" y="654"/>
      <point x="-39" y="684" type="curve"/>
      <point x="-57" y="684" type="line"/>
      <point x="-65" y="654"/>
      <point x="-71" y="626"/>
      <point x="-71" y="592" type="curve" smooth="yes"/>
      <point x="-71" y="526"/>
      <point x="-53" y="491"/>
      <point x="5" y="491" type="curve" smooth="yes"/>
      <point x="31" y="491" type="line" smooth="yes"/>
      <point x="84" y="491"/>
      <point x="111" y="519"/>
      <point x="111" y="587" type="curve"/>
      <point x="148" y="587" type="line" smooth="yes"/>
      <point x="171" y="587"/>
      <point x="189" y="595"/>
      <point x="202" y="613" type="curve"/>
      <point x="216" y="596"/>
      <point x="237" y="587"/>
    </contour>
  </outline>
</glyph>
<glyph name="sukunoval-ar" format="2">
  <unicode hex="06E0"/>
  <note>
uni06E0
</note>
  <anchor x="0" y="556" name="_top"/>
  <anchor x="0" y="556" name="_top2"/>
  <anchor x="1" y="624" name="top"/>
  <outline>
    <contour>
      <point x="21" y="570" type="line"/>
      <point x="21" y="612" type="line"/>
      <point x="-21" y="612" type="line"/>
      <point x="-21" y="570" type="line"/>
    </contour>
  </outline>
</glyph>
<glyph name="meemStopabove-ar" format="2">
  <unicode hex="06E2"/>
  <note>
uni06E2
</note>
  <anchor x="0" y="458" name="_top"/>
  <anchor x="0" y="458" name="_top2"/>
  <anchor x="4" y="823" name="top"/>
  <outline>
    <contour>
      <point x="-85" y="578" type="curve" smooth="yes"/>
      <point x="-85" y="485" type="line"/>
      <point x="-67" y="485" type="line"/>
      <point x="-67" y="582" type="line" smooth="yes"/>
      <point x="-67" y="600"/>
      <point x="-60" y="613"/>
      <point x="-35" y="613" type="curve" smooth="yes"/>
      <point x="8" y="613" type="line" smooth="yes"/>
      <point x="70" y="613"/>
      <point x="92" y="651"/>
      <point x="92" y="714" type="curve" smooth="yes"/>
      <point x="92" y="766"/>
      <point x="68" y="797"/>
      <point x="20" y="797" type="curve" smooth="yes"/>
      <point x="-11" y="797"/>
      <point x="-35" y="787"/>
      <point x="-48" y="767" type="curve"/>
      <point x="-55" y="753"/>
      <point x="-56" y="740"/>
      <point x="-56" y="723" type="curve" smooth="yes"/>
      <point x="-56" y="695"/>
      <point x="-49" y="660"/>
      <point x="-35" y="631" type="curve"/>
      <point x="-70" y="631"/>
      <point x="-85" y="613"/>
    </contour>
    <contour>
      <point x="-38" y="732" type="curve" smooth="yes"/>
      <point x="-38" y="746"/>
      <point x="-36" y="755"/>
      <point x="-33" y="760" type="curve"/>
      <point x="-17" y="772"/>
      <point x="2" y="779"/>
      <point x="21" y="779" type="curve" smooth="yes"/>
      <point x="60" y="779"/>
      <point x="74" y="751"/>
      <point x="74" y="714" type="curve" smooth="yes"/>
      <point x="74" y="661"/>
      <point x="59" y="631"/>
      <point x="12" y="631" type="curve" smooth="yes"/>
      <point x="-19" y="631" type="line"/>
      <point x="-31" y="664"/>
      <point x="-38" y="695"/>
    </contour>
  </outline>
</glyph>
<glyph name="seenbelow-ar" format="2">
  <unicode hex="06E3"/>
  <note>
uni06E3
</note>
  <anchor x="18" y="30" name="_bottom"/>
  <anchor x="19" y="28" name="_bottom2"/>
  <anchor x="2" y="-268" name="bottom"/>
  <outline>
    <contour>
      <point x="156" y="-144" type="curve" smooth="yes"/>
      <point x="188" y="-144" type="line"/>
      <point x="188" y="46" type="line"/>
      <point x="170" y="46" type="line"/>
      <point x="170" y="-126" type="line"/>
      <point x="157" y="-126" type="line" smooth="yes"/>
      <point x="128" y="-126"/>
      <point x="112" y="-113"/>
      <point x="102" y="-100" type="curve"/>
      <point x="103" y="-95"/>
      <point x="103" y="-89"/>
      <point x="103" y="-84" type="curve"/>
      <point x="103" y="15" type="line"/>
      <point x="85" y="15" type="line"/>
      <point x="85" y="-83" type="line" smooth="yes"/>
      <point x="85" y="-106"/>
      <point x="68" y="-126"/>
      <point x="45" y="-126" type="curve" smooth="yes"/>
      <point x="2" y="-126" type="line"/>
      <point x="2" y="15" type="line"/>
      <point x="-16" y="15" type="line"/>
      <point x="-16" y="-146" type="line" smooth="yes"/>
      <point x="-16" y="-202"/>
      <point x="-36" y="-222"/>
      <point x="-78" y="-222" type="curve" smooth="yes"/>
      <point x="-104" y="-222" type="line" smooth="yes"/>
      <point x="-155" y="-222"/>
      <point x="-162" y="-186"/>
      <point x="-162" y="-139" type="curve" smooth="yes"/>
      <point x="-162" y="-105"/>
      <point x="-156" y="-77"/>
      <point x="-148" y="-47" type="curve"/>
      <point x="-166" y="-47" type="line"/>
      <point x="-174" y="-77"/>
      <point x="-180" y="-105"/>
      <point x="-180" y="-139" type="curve" smooth="yes"/>
      <point x="-180" y="-205"/>
      <point x="-162" y="-240"/>
      <point x="-104" y="-240" type="curve" smooth="yes"/>
      <point x="-78" y="-240" type="line" smooth="yes"/>
      <point x="-25" y="-240"/>
      <point x="2" y="-212"/>
      <point x="2" y="-144" type="curve"/>
      <point x="39" y="-144" type="line" smooth="yes"/>
      <point x="62" y="-144"/>
      <point x="80" y="-136"/>
      <point x="93" y="-118" type="curve"/>
      <point x="107" y="-135"/>
      <point x="128" y="-144"/>
    </contour>
  </outline>
</glyph>
<glyph name="maddalong-ar" format="2">
  <unicode hex="06E4"/>
  <note>
uni06E4
</note>
  <anchor x="0" y="570" name="_top"/>
  <anchor x="0" y="571" name="_top2"/>
  <anchor x="0" y="616" name="top"/>
  <outline>
    <contour>
      <point x="-55" y="574" type="curve"/>
      <point x="-43" y="574" type="line"/>
      <point x="-40" y="586"/>
      <point x="-35" y="589"/>
      <point x="-24" y="589" type="curve" smooth="yes"/>
      <point x="-18" y="589"/>
      <point x="-11" y="587"/>
      <point x="0" y="584" type="curve" smooth="yes"/>
      <point x="11" y="581"/>
      <point x="20" y="577"/>
      <point x="29" y="577" type="curve" smooth="yes"/>
      <point x="45" y="577"/>
      <point x="55" y="588"/>
      <point x="56" y="606" type="curve"/>
      <point x="44" y="606" type="line"/>
      <point x="41" y="594"/>
      <point x="37" y="591"/>
      <point x="28" y="591" type="curve" smooth="yes"/>
      <point x="23" y="591"/>
      <point x="16" y="594"/>
      <point x="2" y="598" type="curve" smooth="yes"/>
      <point x="-9" y="601"/>
      <point x="-17" y="603"/>
      <point x="-27" y="603" type="curve" smooth="yes"/>
      <point x="-41" y="603"/>
      <point x="-52" y="597"/>
    </contour>
  </outline>
</glyph>
<glyph name="wawSmall-ar" format="2">
  <advance width="179"/>
  <unicode hex="06E5"/>
  <note>
uni06E5
</note>
  <outline>
    <contour>
      <point x="79" y="485" type="curve" smooth="yes"/>
      <point x="136" y="485"/>
      <point x="159" y="517"/>
      <point x="159" y="564" type="curve" smooth="yes"/>
      <point x="159" y="771" type="line"/>
      <point x="128" y="771" type="line" smooth="yes"/>
      <point x="61" y="771"/>
      <point x="23" y="732"/>
      <point x="23" y="671" type="curve" smooth="yes"/>
      <point x="23" y="607"/>
      <point x="59" y="581"/>
      <point x="112" y="581" type="curve" smooth="yes"/>
      <point x="145" y="581" type="line"/>
      <point x="145" y="561" type="line" smooth="yes"/>
      <point x="145" y="524"/>
      <point x="125" y="499"/>
      <point x="82" y="499" type="curve" smooth="yes"/>
      <point x="63" y="499"/>
      <point x="46" y="506"/>
      <point x="29" y="518" type="curve"/>
      <point x="20" y="507" type="line"/>
      <point x="33" y="495"/>
      <point x="59" y="485"/>
    </contour>
    <contour>
      <point x="145" y="595" type="line"/>
      <point x="111" y="595" type="line" smooth="yes"/>
      <point x="59" y="595"/>
      <point x="37" y="622"/>
      <point x="37" y="670" type="curve" smooth="yes"/>
      <point x="37" y="722"/>
      <point x="66" y="757"/>
      <point x="128" y="757" type="curve" smooth="yes"/>
      <point x="145" y="757" type="line"/>
    </contour>
  </outline>
</glyph>
<glyph name="yehabove-ar" format="2">
  <unicode hex="06E7"/>
  <note>
uni06E7
</note>
  <anchor x="-15" y="459" name="_top"/>
  <anchor x="-15" y="469" name="_top2"/>
  <anchor x="-24" y="679" name="top"/>
  <outline>
    <contour>
      <point x="-83" y="485" type="curve" smooth="yes"/>
      <point x="88" y="485" type="line"/>
      <point x="88" y="503" type="line"/>
      <point x="-83" y="503" type="line" smooth="yes"/>
      <point x="-106" y="503"/>
      <point x="-117" y="511"/>
      <point x="-117" y="525" type="curve" smooth="yes"/>
      <point x="-117" y="534"/>
      <point x="-114" y="542"/>
      <point x="-107" y="548" type="curve" smooth="yes"/>
      <point x="-100" y="554"/>
      <point x="-85" y="563"/>
      <point x="-52" y="576" type="curve" smooth="yes"/>
      <point x="7" y="600"/>
      <point x="22" y="613"/>
      <point x="22" y="663" type="curve" smooth="yes"/>
      <point x="22" y="679" type="line"/>
      <point x="4" y="679" type="line"/>
      <point x="4" y="661" type="line" smooth="yes"/>
      <point x="4" y="626"/>
      <point x="0" y="618"/>
      <point x="-55" y="594" type="curve" smooth="yes"/>
      <point x="-118" y="571"/>
      <point x="-135" y="554"/>
      <point x="-135" y="524" type="curve" smooth="yes"/>
      <point x="-135" y="498"/>
      <point x="-117" y="485"/>
    </contour>
  </outline>
</glyph>
<glyph name="meembelow-ar" format="2">
  <unicode hex="06ED"/>
  <note>
uni06ED
</note>
  <anchor x="0" y="-49" name="_bottom"/>
  <anchor x="0" y="-49" name="_bottom2"/>
  <anchor x="0" y="-381" name="bottom"/>
  <outline>
    <contour>
      <point x="-65" y="-272" type="curve" smooth="yes"/>
      <point x="-65" y="-365" type="line"/>
      <point x="-47" y="-365" type="line"/>
      <point x="-47" y="-268" type="line" smooth="yes"/>
      <point x="-47" y="-250"/>
      <point x="-40" y="-237"/>
      <point x="-15" y="-237" type="curve" smooth="yes"/>
      <point x="28" y="-237" type="line" smooth="yes"/>
      <point x="90" y="-237"/>
      <point x="112" y="-199"/>
      <point x="112" y="-136" type="curve" smooth="yes"/>
      <point x="112" y="-84"/>
      <point x="88" y="-53"/>
      <point x="40" y="-53" type="curve" smooth="yes"/>
      <point x="9" y="-53"/>
      <point x="-15" y="-63"/>
      <point x="-28" y="-83" type="curve"/>
      <point x="-35" y="-97"/>
      <point x="-36" y="-110"/>
      <point x="-36" y="-127" type="curve" smooth="yes"/>
      <point x="-36" y="-155"/>
      <point x="-29" y="-190"/>
      <point x="-15" y="-219" type="curve"/>
      <point x="-50" y="-219"/>
      <point x="-65" y="-237"/>
    </contour>
    <contour>
      <point x="-18" y="-118" type="curve" smooth="yes"/>
      <point x="-18" y="-104"/>
      <point x="-16" y="-95"/>
      <point x="-13" y="-90" type="curve"/>
      <point x="3" y="-78"/>
      <point x="22" y="-71"/>
      <point x="41" y="-71" type="curve" smooth="yes"/>
      <point x="80" y="-71"/>
      <point x="94" y="-99"/>
      <point x="94" y="-136" type="curve" smooth="yes"/>
      <point x="94" y="-189"/>
      <point x="79" y="-219"/>
      <point x="32" y="-219" type="curve" smooth="yes"/>
      <point x="1" y="-219" type="line"/>
      <point x="-11" y="-186"/>
      <point x="-18" y="-155"/>
    </contour>
  </outline>
</glyph>
<glyph name="alefMaksura-ar.fina" format="2">
  <advance width="923"/>
  <note>
uni0649.fina
</note>
  <anchor x="391" y="-322" name="bottom"/>
  <anchor x="225" y="322" name="top"/>
  <outline>
    <contour>
      <point x="286" y="-240" type="curve" smooth="yes"/>
      <point x="440" y="-240" type="line" smooth="yes"/>
      <point x="590" y="-240"/>
      <point x="667" y="-170"/>
      <point x="667" y="-75" type="curve" smooth="yes"/>
      <point x="667" y="-34"/>
      <point x="639" y="-11"/>
      <point x="591" y="6" type="curve" smooth="yes"/>
      <point x="565" y="15"/>
      <point x="533" y="23"/>
      <point x="497" y="33" type="curve" smooth="yes"/>
      <point x="461" y="43"/>
      <point x="401" y="58"/>
      <point x="401" y="116" type="curve" smooth="yes"/>
      <point x="401" y="202"/>
      <point x="483" y="303"/>
      <point x="582" y="303" type="curve" smooth="yes"/>
      <point x="614" y="303"/>
      <point x="641" y="293"/>
      <point x="660" y="278" type="curve" smooth="yes"/>
      <point x="691" y="254"/>
      <point x="706" y="212"/>
      <point x="726" y="167" type="curve" smooth="yes"/>
      <point x="746" y="125"/>
      <point x="766" y="78"/>
      <point x="813" y="39" type="curve" smooth="yes"/>
      <point x="848" y="10"/>
      <point x="880" y="0"/>
      <point x="923" y="0" type="curve" smooth="yes"/>
      <point x="928" y="0" type="line" smooth="yes"/>
      <point x="931" y="0"/>
      <point x="933" y="2"/>
      <point x="933" y="5" type="curve" smooth="yes"/>
      <point x="933" y="20" type="line" smooth="yes"/>
      <point x="933" y="23"/>
      <point x="931" y="24"/>
      <point x="928" y="24" type="curve" smooth="yes"/>
      <point x="923" y="24" type="line" smooth="yes"/>
      <point x="894" y="24"/>
      <point x="868" y="27"/>
      <point x="834" y="54" type="curve" smooth="yes"/>
      <point x="786" y="91"/>
      <point x="767" y="140"/>
      <point x="747" y="186" type="curve" smooth="yes"/>
      <point x="726" y="232"/>
      <point x="708" y="277"/>
      <point x="670" y="303" type="curve" smooth="yes"/>
      <point x="647" y="318"/>
      <point x="616.001" y="327"/>
      <point x="584" y="327" type="curve" smooth="yes"/>
      <point x="513" y="327"/>
      <point x="445" y="283"/>
      <point x="405" y="214" type="curve" smooth="yes"/>
      <point x="389" y="188"/>
      <point x="377" y="155"/>
      <point x="377" y="114" type="curve" smooth="yes"/>
      <point x="377" y="33"/>
      <point x="465" y="16"/>
      <point x="527" y="0" type="curve" smooth="yes"/>
      <point x="605" y="-20"/>
      <point x="643" y="-34"/>
      <point x="643" y="-80" type="curve" smooth="yes"/>
      <point x="643" y="-139"/>
      <point x="591" y="-216"/>
      <point x="442" y="-216" type="curve" smooth="yes"/>
      <point x="280" y="-216" type="line" smooth="yes"/>
      <point x="136" y="-216"/>
      <point x="88" y="-153"/>
      <point x="88" y="5" type="curve" smooth="yes"/>
      <point x="88" y="71"/>
      <point x="105" y="132"/>
      <point x="118" y="181" type="curve"/>
      <point x="97" y="181" type="line"/>
      <point x="84" y="136"/>
      <point x="64" y="75"/>
      <point x="64" y="0" type="curve" smooth="yes"/>
      <point x="64" y="-173"/>
      <point x="125" y="-240"/>
    </contour>
  </outline>
</glyph>
<glyph name="diagonal" format="2">
  <advance width="326"/>
  <note>
diagonal
</note>
  <outline>
    <contour>
      <point x="2" y="572" type="curve"/>
      <point x="14" y="553" type="line"/>
      <point x="79" y="666"/>
      <point x="201" y="782"/>
      <point x="311" y="834" type="curve"/>
      <point x="304" y="854" type="line"/>
      <point x="189" y="800"/>
      <point x="75" y="694"/>
    </contour>
  </outline>
</glyph>
<glyph name="onedot.above" format="2">
  <note>
onedot.above
</note>
  <outline>
    <contour>
      <point x="-10" y="598" type="curve" smooth="yes"/>
      <point x="4" y="598"/>
      <point x="16" y="605"/>
      <point x="16" y="626" type="curve" smooth="yes"/>
      <point x="16" y="648"/>
      <point x="1" y="654"/>
      <point x="-10" y="654" type="curve" smooth="yes"/>
      <point x="-26" y="654"/>
      <point x="-36" y="646"/>
      <point x="-36" y="626" type="curve" smooth="yes"/>
      <point x="-36" y="606"/>
      <point x="-26" y="598"/>
    </contour>
  </outline>
</glyph>
<glyph name="seven-persian.urdu" format="2">
  <advance width="431"/>
  <note>
uni06F7.urdu
</note>
  <outline>
    <contour>
      <point x="260" y="674" type="line"/>
      <point x="42" y="23" type="line"/>
      <point x="42" y="0" type="line"/>
      <point x="386" y="0" type="line"/>
      <point x="386" y="23" type="line"/>
      <point x="66" y="23" type="line"/>
      <point x="287" y="674" type="line"/>
    </contour>
  </outline>
</glyph>
<glyph name="smallv.arabic" format="2">
  <note>
smallv.arabic
</note>
  <outline>
    <contour>
      <point x="122" y="807" type="line"/>
      <point x="95" y="807" type="line"/>
      <point x="1" y="651" type="line"/>
      <point x="-94" y="807" type="line"/>
      <point x="-121" y="807" type="line"/>
      <point x="-10" y="628" type="line"/>
      <point x="12" y="628" type="line"/>
    </contour>
  </outline>
</glyph>
<glyph name="twodots.vert.small.above" format="2">
  <note>
twodots.vert.small.above
</note>
  <outline>
    <contour>
      <point x="0" y="636" type="curve" smooth="yes"/>
      <point x="9" y="636"/>
      <point x="25" y="641"/>
      <point x="25" y="662" type="curve" smooth="yes"/>
      <point x="25" y="685"/>
      <point x="11" y="689"/>
      <point x="0" y="689" type="curve" smooth="yes"/>
      <point x="-16.001" y="689"/>
      <point x="-24" y="681"/>
      <point x="-24" y="662" type="curve" smooth="yes"/>
      <point x="-24" y="638.001"/>
      <point x="-12.001" y="636"/>
    </contour>
    <contour>
      <point x="0" y="741" type="curve" smooth="yes"/>
      <point x="11" y="741"/>
      <point x="25" y="743.999"/>
      <point x="25" y="768" type="curve" smooth="yes"/>
      <point x="25" y="791"/>
      <point x="11" y="794"/>
      <point x="0" y="794" type="curve" smooth="yes"/>
      <point x="-16.001" y="794"/>
      <point x="-24" y="787"/>
      <point x="-24" y="768" type="curve" smooth="yes"/>
      <point x="-24" y="745"/>
      <point x="-16.001" y="741"/>
    </contour>
  </outline>
</glyph>
<glyph name="wasla" format="2">
  <note>
wasla
</note>
  <anchor x="0" y="762" name="_top"/>
  <anchor x="0" y="742" name="_top2"/>
  <outline>
    <contour>
      <point x="-103" y="792" type="line"/>
      <point x="-103" y="774" type="line"/>
      <point x="110" y="774" type="line"/>
      <point x="110" y="806" type="line" smooth="yes"/>
      <point x="110" y="865"/>
      <point x="82" y="900"/>
      <point x="37" y="900" type="curve" smooth="yes"/>
      <point x="-7" y="900"/>
      <point x="-43" y="861"/>
      <point x="-62" y="792" type="curve"/>
    </contour>
    <contour>
      <point x="92" y="792" type="curve"/>
      <point x="-43" y="792" type="line"/>
      <point x="-28" y="845"/>
      <point x="0" y="882"/>
      <point x="35" y="882" type="curve" smooth="yes"/>
      <point x="74" y="882"/>
      <point x="92" y="855"/>
    </contour>
  </outline>
</glyph>
<glyph name="wavyhamza_above" format="2">
  <note>
wavyhamza_above
</note>
  <outline>
    <contour>
      <point x="76" y="779" type="curve"/>
      <point x="76" y="801" type="line"/>
      <point x="49" y="796"/>
      <point x="-11" y="786"/>
      <point x="-25" y="785" type="curve"/>
      <point x="-48" y="794"/>
      <point x="-65" y="817"/>
      <point x="-65" y="845" type="curve" smooth="yes"/>
      <point x="-65" y="880"/>
      <point x="-39" y="906"/>
      <point x="2" y="906" type="curve" smooth="yes"/>
      <point x="21" y="906"/>
      <point x="37" y="900"/>
      <point x="47" y="895" type="curve"/>
      <point x="57" y="916" type="line"/>
      <point x="47" y="922"/>
      <point x="28" y="927"/>
      <point x="5" y="927" type="curve" smooth="yes"/>
      <point x="-53" y="927"/>
      <point x="-87" y="895"/>
      <point x="-87" y="845" type="curve" smooth="yes"/>
      <point x="-87" y="813"/>
      <point x="-73" y="792"/>
      <point x="-50" y="780" type="curve"/>
      <point x="-75" y="778"/>
      <point x="-92" y="784"/>
      <point x="-101" y="787" type="curve" smooth="yes"/>
      <point x="-107" y="789"/>
      <point x="-117" y="793"/>
      <point x="-124" y="795" type="curve" smooth="yes"/>
      <point x="-131" y="797"/>
      <point x="-141" y="796"/>
      <point x="-150" y="791" type="curve" smooth="yes"/>
      <point x="-158" y="786"/>
      <point x="-168" y="777"/>
      <point x="-185" y="756" type="curve"/>
      <point x="-171" y="748" type="line"/>
      <point x="-157" y="764"/>
      <point x="-144" y="775"/>
      <point x="-130" y="775" type="curve" smooth="yes"/>
      <point x="-122" y="775"/>
      <point x="-109" y="768"/>
      <point x="-98" y="764" type="curve" smooth="yes"/>
      <point x="-79" y="757"/>
      <point x="-59" y="756"/>
      <point x="-42" y="759" type="curve" smooth="yes"/>
      <point x="-34" y="760"/>
      <point x="63" y="777"/>
    </contour>
  </outline>
</glyph>
